<?xml version="1.0" encoding="UTF-8"?>
<svg version="1.1" xmlns="http://www.w3.org/2000/svg" width="450" height="450">
<path d="M0 0 C1.54332265 -0.00533048 3.0866401 -0.01239905 4.62994772 -0.02104706 C8.85460837 -0.03963496 13.07891755 -0.03338278 17.30359256 -0.02289402 C21.86607131 -0.01589106 26.42847866 -0.03190826 30.99093628 -0.04489136 C39.92264689 -0.06651818 48.85423003 -0.06640784 57.78595822 -0.05826581 C65.04634959 -0.0519625 72.30670382 -0.0531059 79.5670948 -0.05953789 C80.60097327 -0.06043954 81.63485173 -0.0613412 82.70005985 -0.06227018 C84.80046674 -0.0641214 86.90087362 -0.06598396 89.00128049 -0.06785773 C108.69160694 -0.0844316 128.38186171 -0.07572049 148.07218385 -0.05887216 C166.08066151 -0.04417549 184.08897232 -0.05880389 202.09742849 -0.08764232 C220.59608292 -0.11704477 239.09466035 -0.12800612 257.59333712 -0.11846012 C259.68626406 -0.11743758 261.77919102 -0.11644297 263.872118 -0.11547661 C265.41669084 -0.11476202 265.41669084 -0.11476202 266.99246718 -0.114033 C274.24201648 -0.11187 281.4914928 -0.12166689 288.74102592 -0.13624763 C297.5789647 -0.15377537 306.41669077 -0.1536472 315.2546212 -0.13089598 C319.76227102 -0.11975787 324.26954614 -0.1165815 328.77717972 -0.13519669 C332.9071196 -0.15203242 337.03635888 -0.14560903 341.16625363 -0.1209799 C342.65672836 -0.11610631 344.14725993 -0.11958586 345.63768696 -0.13246734 C356.50547487 -0.21958503 364.47954702 1.33818706 372.66151428 8.7646637 C380.20548201 17.08659009 380.36651676 25.9135726 380.30117798 36.72814941 C380.30650846 38.27147206 380.31357702 39.81478951 380.32222503 41.35809714 C380.34081294 45.58275779 380.33456076 49.80706697 380.324072 54.03174198 C380.31706904 58.59422073 380.33308624 63.15662807 380.34606934 67.71908569 C380.36769616 76.65079631 380.36758582 85.58237945 380.35944379 94.51410764 C380.35314048 101.77449901 380.35428387 109.03485324 380.36071587 116.29524422 C380.36161752 117.32912268 380.36251918 118.36300115 380.36344815 119.42820926 C380.36529938 121.52861616 380.36716194 123.62902304 380.36903571 125.72942991 C380.38560958 145.41975636 380.37689847 165.11001113 380.36005013 184.80033327 C380.34535347 202.80881093 380.35998187 220.81712174 380.3888203 238.82557791 C380.41822275 257.32423233 380.4291841 275.82280977 380.4196381 294.32148653 C380.41861556 296.41441348 380.41762095 298.50734044 380.41665459 300.60026741 C380.4161782 301.62998264 380.41570181 302.65969787 380.41521098 303.72061659 C380.41304798 310.9701659 380.42284487 318.21964222 380.43742561 325.46917534 C380.45495335 334.30711411 380.45482518 343.14484018 380.43207396 351.98277061 C380.42093584 356.49042043 380.41775948 360.99769555 380.43637466 365.50532913 C380.4532104 369.63526902 380.44678701 373.7645083 380.42215788 377.89440305 C380.41728429 379.38487777 380.42076384 380.87540935 380.43364532 382.36583637 C380.52076301 393.23362428 378.96299092 401.20769643 371.53651428 409.3896637 C363.21458789 416.93363142 354.38760538 417.09466618 343.57302856 417.02932739 C342.02970592 417.03465787 340.48638847 417.04172644 338.94308084 417.05037445 C334.71842019 417.06896236 330.49411101 417.06271018 326.269436 417.05222142 C321.70695725 417.04521845 317.14454991 417.06123565 312.58209229 417.07421875 C303.65038167 417.09584557 294.71879853 417.09573524 285.78707034 417.08759321 C278.52667897 417.08128989 271.26632474 417.08243329 264.00593376 417.08886528 C262.9720553 417.08976694 261.93817683 417.09066859 260.87296871 417.09159757 C258.77256182 417.0934488 256.67215494 417.09531136 254.57174807 417.09718513 C234.88142162 417.113759 215.19116685 417.10504788 195.50084471 417.08819955 C177.49236705 417.07350288 159.48405624 417.08813128 141.47560007 417.11696971 C122.97694565 417.14637217 104.47836821 417.15733351 85.97969145 417.14778751 C83.8867645 417.14676498 81.79383754 417.14577037 79.70091057 417.144804 C78.67119534 417.14432761 77.64148011 417.14385122 76.58056139 417.14336039 C69.33101208 417.1411974 62.08153576 417.15099428 54.83200264 417.16557503 C45.99406386 417.18310276 37.1563378 417.1829746 28.31840736 417.16022337 C23.81075755 417.14908526 19.30348242 417.1459089 14.79584885 417.16452408 C10.66590896 417.18135981 6.53666968 417.17493642 2.40677493 417.15030729 C0.9163002 417.14543371 -0.57423137 417.14891325 -2.0646584 417.16179473 C-12.93244631 417.24891242 -20.90651846 415.69114034 -29.08848572 408.2646637 C-36.63245344 399.94273731 -36.7934882 391.1157548 -36.72814941 380.30117798 C-36.73347989 378.75785533 -36.74054846 377.21453788 -36.74919647 375.67123026 C-36.76778438 371.44656961 -36.7615322 367.22226043 -36.75104344 362.99758542 C-36.74404048 358.43510667 -36.76005767 353.87269932 -36.77304077 349.3102417 C-36.79466759 340.37853108 -36.79455726 331.44694794 -36.78641523 322.51521976 C-36.78011191 315.25482839 -36.78125531 307.99447416 -36.7876873 300.73408318 C-36.78858896 299.70020471 -36.78949061 298.66632624 -36.79041959 297.60111813 C-36.79227082 295.50071124 -36.79413338 293.40030436 -36.79600715 291.29989748 C-36.81258102 271.60957103 -36.8038699 251.91931626 -36.78702157 232.22899412 C-36.7723249 214.22051647 -36.78695331 196.21220566 -36.81579173 178.20374949 C-36.84519419 159.70509506 -36.85615553 141.20651762 -36.84660953 122.70784086 C-36.845587 120.61491391 -36.84459239 118.52198695 -36.84362602 116.42905998 C-36.84314963 115.39934475 -36.84267324 114.36962952 -36.84218242 113.3087108 C-36.84001942 106.0591615 -36.84981631 98.80968518 -36.86439705 91.56015205 C-36.88192479 82.72221328 -36.88179662 73.88448721 -36.85904539 65.04655678 C-36.84790728 60.53890696 -36.84473092 56.03163184 -36.8633461 51.52399826 C-36.88018183 47.39405838 -36.87375844 43.2648191 -36.84912931 39.13492434 C-36.84425573 37.64444962 -36.84773527 36.15391805 -36.86061675 34.66349102 C-36.94773444 23.79570311 -35.38996236 15.82163096 -27.96348572 7.6396637 C-19.64155933 0.09569597 -10.81457682 -0.06533878 0 0 Z " fill="#82D8DC" transform="translate(53.21348571777344,16.485336303710938)"/>
</svg>
